<!--?xml version="1.0" standalone="no"?-->              <svg id="sw-js-blob-svg" viewBox="0 0 100 100" xmlns="http://www.w3.org/2000/svg">                    <defs>                         <linearGradient id="sw-gradient" x1="0" x2="1" y1="1" y2="0">                            <stop id="stop1" stop-color="rgba(0, 255, 207.485, 1)" offset="0%"></stop>                            <stop id="stop2" stop-color="rgba(0, 112.453, 255, 1)" offset="100%"></stop>                        </linearGradient>                    </defs>                <path fill="none" d="M20.4,-36C26,-32.1,29.7,-25.7,33.7,-19.3C37.6,-12.9,41.7,-6.4,43.3,0.9C44.9,8.3,44.1,16.6,39.3,21.6C34.6,26.6,26,28.3,18.8,29.5C11.6,30.6,5.8,31.2,-0.8,32.6C-7.4,34,-14.8,36.2,-20.3,34.1C-25.9,32,-29.6,25.6,-33,19.2C-36.3,12.8,-39.3,6.4,-39.7,-0.2C-40.1,-6.9,-38,-13.8,-34.1,-19.3C-30.2,-24.7,-24.5,-28.6,-18.5,-32.3C-12.5,-35.9,-6.3,-39.3,0.6,-40.3C7.4,-41.3,14.8,-39.9,20.4,-36Z" width="100%" height="100%" transform="translate(50 50)" style="transition: all 0.3s ease 0s;" stroke-width="1" stroke="url(#sw-gradient)"></path>              </svg>